<?xml version="1.0" ?><svg viewBox="0 0 64 64" xmlns="http://www.w3.org/2000/svg"><defs><style>.cls-1{fill:#8bc4ff;}.cls-2{fill:#e8f3ff;}.cls-3{fill:#d1e7ff;}.cls-4{fill:#2e58ff;}</style></defs><title/><g id="Wallet"><rect class="cls-1" height="44" rx="4" width="56" x="2" y="18"/><path class="cls-2" d="M49,47H62V33H49a7,7,0,0,0,0,14Z"/><path class="cls-3" d="M52,18,46.19,4.71A4.52,4.52,0,0,0,42,2c-1.48,0,.7-.84-34,16Z"/><path class="cls-4" d="M62,31H60V22a6,6,0,0,0-6-6h-.69L48,3.91A6.54,6.54,0,0,0,42,0c-2.14,0-.47-.51-34.5,16H6a6,6,0,0,0-6,6V58a6,6,0,0,0,6,6H54a6,6,0,0,0,6-6V49h2a2,2,0,0,0,2-2V33A2,2,0,0,0,62,31ZM40.93,4.25a2.53,2.53,0,0,1,3.42,1.26L48.94,16H16.71ZM56,58a2,2,0,0,1-2,2H6a2,2,0,0,1-2-2V22a2,2,0,0,1,2-2H54a2,2,0,0,1,2,2v9H49a9,9,0,0,0,0,18h7Zm4-13H49a5,5,0,0,1,0-10H60Z"/><circle class="cls-1" cx="49" cy="40" r="2"/></g></svg>